<mxfile host="app.diagrams.net" modified="2020-10-09T10:30:14.654Z" agent="5.0 (Windows NT 10.0; WOW64) AppleWebKit/537.36 (KHTML, like Gecko) Chrome/76.0.3809.87 Safari/537.36" etag="4RLJfCdMx-6SA8TkIKRB" version="13.7.9" type="github">
  <diagram name="Page-1" id="13e1069c-82ec-6db2-03f1-153e76fe0fe0">
    <mxGraphModel dx="2790" dy="1012" grid="1" gridSize="10" guides="1" tooltips="1" connect="1" arrows="1" fold="1" page="1" pageScale="1" pageWidth="1100" pageHeight="850" background="#ffffff" math="0" shadow="0">
      <root>
        <mxCell id="0" />
        <mxCell id="1" parent="0" />
        <mxCell id="7baba1c4bc27f4b0-4" value="第三方" style="shape=umlLifeline;perimeter=lifelinePerimeter;whiteSpace=wrap;html=1;container=1;collapsible=0;recursiveResize=0;outlineConnect=0;rounded=1;shadow=0;comic=0;labelBackgroundColor=none;strokeWidth=1;fontFamily=Verdana;fontSize=12;align=center;" parent="1" vertex="1">
          <mxGeometry x="540" y="80" width="100" height="1080" as="geometry" />
        </mxCell>
        <mxCell id="7baba1c4bc27f4b0-16" value="" style="html=1;points=[];perimeter=orthogonalPerimeter;rounded=0;shadow=0;comic=0;labelBackgroundColor=none;strokeWidth=1;fontFamily=Verdana;fontSize=12;align=center;" parent="1" vertex="1">
          <mxGeometry x="585" y="400" width="10" height="360" as="geometry" />
        </mxCell>
        <mxCell id="7baba1c4bc27f4b0-2" value="MQ" style="shape=umlLifeline;perimeter=lifelinePerimeter;whiteSpace=wrap;html=1;container=1;collapsible=0;recursiveResize=0;outlineConnect=0;rounded=1;shadow=0;comic=0;labelBackgroundColor=none;strokeWidth=1;fontFamily=Verdana;fontSize=12;align=center;" parent="1" vertex="1">
          <mxGeometry x="240" y="80" width="100" height="1080" as="geometry" />
        </mxCell>
        <mxCell id="7baba1c4bc27f4b0-10" value="" style="html=1;points=[];perimeter=orthogonalPerimeter;rounded=0;shadow=0;comic=0;labelBackgroundColor=none;strokeWidth=1;fontFamily=Verdana;fontSize=12;align=center;" parent="7baba1c4bc27f4b0-2" vertex="1">
          <mxGeometry x="45" y="80" width="10" height="600" as="geometry" />
        </mxCell>
        <mxCell id="7baba1c4bc27f4b0-3" value="Message" style="shape=umlLifeline;perimeter=lifelinePerimeter;whiteSpace=wrap;html=1;container=1;collapsible=0;recursiveResize=0;outlineConnect=0;rounded=1;shadow=0;comic=0;labelBackgroundColor=none;strokeWidth=1;fontFamily=Verdana;fontSize=12;align=center;" parent="1" vertex="1">
          <mxGeometry x="400" y="80" width="100" height="1080" as="geometry" />
        </mxCell>
        <mxCell id="7baba1c4bc27f4b0-13" value="" style="html=1;points=[];perimeter=orthogonalPerimeter;rounded=0;shadow=0;comic=0;labelBackgroundColor=none;strokeWidth=1;fontFamily=Verdana;fontSize=12;align=center;" parent="7baba1c4bc27f4b0-3" vertex="1">
          <mxGeometry x="45" y="80" width="10" height="600" as="geometry" />
        </mxCell>
        <mxCell id="7baba1c4bc27f4b0-5" value="DB" style="shape=umlLifeline;perimeter=lifelinePerimeter;whiteSpace=wrap;html=1;container=1;collapsible=0;recursiveResize=0;outlineConnect=0;rounded=1;shadow=0;comic=0;labelBackgroundColor=none;strokeWidth=1;fontFamily=Verdana;fontSize=12;align=center;" parent="1" vertex="1">
          <mxGeometry x="680" y="80" width="100" height="1080" as="geometry" />
        </mxCell>
        <mxCell id="7baba1c4bc27f4b0-8" value="业务消息" style="shape=umlLifeline;perimeter=lifelinePerimeter;whiteSpace=wrap;html=1;container=1;collapsible=0;recursiveResize=0;outlineConnect=0;rounded=1;shadow=0;comic=0;labelBackgroundColor=none;strokeWidth=1;fontFamily=Verdana;fontSize=12;align=center;" parent="1" vertex="1">
          <mxGeometry x="100" y="80" width="100" height="1080" as="geometry" />
        </mxCell>
        <mxCell id="7baba1c4bc27f4b0-9" value="" style="html=1;points=[];perimeter=orthogonalPerimeter;rounded=0;shadow=0;comic=0;labelBackgroundColor=none;strokeWidth=1;fontFamily=Verdana;fontSize=12;align=center;" parent="7baba1c4bc27f4b0-8" vertex="1">
          <mxGeometry x="45" y="80" width="10" height="600" as="geometry" />
        </mxCell>
        <mxCell id="7baba1c4bc27f4b0-17" value="请求" style="html=1;verticalAlign=bottom;endArrow=block;labelBackgroundColor=none;fontFamily=Verdana;fontSize=12;edgeStyle=elbowEdgeStyle;elbow=vertical;entryX=-0.033;entryY=0.072;entryDx=0;entryDy=0;entryPerimeter=0;" parent="1" target="7baba1c4bc27f4b0-16" edge="1">
          <mxGeometry relative="1" as="geometry">
            <mxPoint x="450" y="426" as="sourcePoint" />
            <Array as="points">
              <mxPoint x="530" y="426" />
            </Array>
          </mxGeometry>
        </mxCell>
        <mxCell id="7baba1c4bc27f4b0-19" value="" style="html=1;points=[];perimeter=orthogonalPerimeter;rounded=0;shadow=0;comic=0;labelBackgroundColor=none;strokeWidth=1;fontFamily=Verdana;fontSize=12;align=center;" parent="1" vertex="1">
          <mxGeometry x="725" y="160" width="10" height="600" as="geometry" />
        </mxCell>
        <mxCell id="7baba1c4bc27f4b0-30" value="http请求成功" style="html=1;verticalAlign=bottom;endArrow=open;dashed=1;endSize=8;labelBackgroundColor=none;fontFamily=Verdana;fontSize=12;edgeStyle=elbowEdgeStyle;elbow=vertical;entryX=1.5;entryY=0.125;entryDx=0;entryDy=0;entryPerimeter=0;exitX=-0.033;exitY=0.124;exitDx=0;exitDy=0;exitPerimeter=0;" parent="1" source="7baba1c4bc27f4b0-13" target="7baba1c4bc27f4b0-9" edge="1">
          <mxGeometry x="0.6897" y="-140" relative="1" as="geometry">
            <mxPoint x="800" y="727" as="targetPoint" />
            <Array as="points">
              <mxPoint x="310" y="235" />
              <mxPoint x="200" y="640" />
              <mxPoint x="570" y="701" />
            </Array>
            <mxPoint x="380" y="700" as="sourcePoint" />
            <mxPoint x="140" y="140" as="offset" />
          </mxGeometry>
        </mxCell>
        <mxCell id="7baba1c4bc27f4b0-11" value="" style="html=1;verticalAlign=bottom;endArrow=block;labelBackgroundColor=none;fontFamily=Verdana;fontSize=12;edgeStyle=elbowEdgeStyle;elbow=vertical;fillColor=#d5e8d4;strokeColor=#82b366;" parent="1" edge="1">
          <mxGeometry relative="1" as="geometry">
            <mxPoint x="155" y="261" as="sourcePoint" />
            <mxPoint x="290" y="261" as="targetPoint" />
          </mxGeometry>
        </mxCell>
        <mxCell id="k1pHN3gSKMdNhCrVo-mf-8" value="&lt;span style=&quot;font-family: &amp;#34;verdana&amp;#34; ; font-size: 12px ; background-color: rgb(248 , 249 , 250)&quot;&gt;业务直接放入MQ&lt;/span&gt;" style="edgeLabel;html=1;align=center;verticalAlign=middle;resizable=0;points=[];" vertex="1" connectable="0" parent="7baba1c4bc27f4b0-11">
          <mxGeometry x="0.1385" y="2" relative="1" as="geometry">
            <mxPoint x="-9" y="2" as="offset" />
          </mxGeometry>
        </mxCell>
        <mxCell id="7baba1c4bc27f4b0-14" value="监听MQ队列消息" style="html=1;verticalAlign=bottom;endArrow=block;entryX=-0.1;entryY=0.254;labelBackgroundColor=none;fontFamily=Verdana;fontSize=12;edgeStyle=elbowEdgeStyle;elbow=vertical;entryDx=0;entryDy=0;entryPerimeter=0;" parent="1" edge="1">
          <mxGeometry relative="1" as="geometry">
            <mxPoint x="295" y="330" as="sourcePoint" />
            <mxPoint x="444" y="330.4000000000001" as="targetPoint" />
            <Array as="points">
              <mxPoint x="430" y="330" />
            </Array>
          </mxGeometry>
        </mxCell>
        <mxCell id="7baba1c4bc27f4b0-40" value="业务短信" style="shape=note;whiteSpace=wrap;html=1;size=14;verticalAlign=top;align=left;spacingTop=-6;rounded=0;shadow=0;comic=0;labelBackgroundColor=none;strokeWidth=1;fontFamily=Verdana;fontSize=12" parent="1" vertex="1">
          <mxGeometry x="100" y="30" width="100" height="35" as="geometry" />
        </mxCell>
        <mxCell id="7baba1c4bc27f4b0-41" value="MQ" style="shape=note;whiteSpace=wrap;html=1;size=14;verticalAlign=top;align=left;spacingTop=-6;rounded=0;shadow=0;comic=0;labelBackgroundColor=none;strokeWidth=1;fontFamily=Verdana;fontSize=12" parent="1" vertex="1">
          <mxGeometry x="240" y="30" width="100" height="35" as="geometry" />
        </mxCell>
        <mxCell id="7baba1c4bc27f4b0-42" value="Message" style="shape=note;whiteSpace=wrap;html=1;size=14;verticalAlign=top;align=left;spacingTop=-6;rounded=0;shadow=0;comic=0;labelBackgroundColor=none;strokeWidth=1;fontFamily=Verdana;fontSize=12" parent="1" vertex="1">
          <mxGeometry x="400" y="30" width="100" height="35" as="geometry" />
        </mxCell>
        <mxCell id="7baba1c4bc27f4b0-43" value="第三方" style="shape=note;whiteSpace=wrap;html=1;size=14;verticalAlign=top;align=left;spacingTop=-6;rounded=0;shadow=0;comic=0;labelBackgroundColor=none;strokeWidth=1;fontFamily=Verdana;fontSize=12" parent="1" vertex="1">
          <mxGeometry x="540" y="30" width="100" height="35" as="geometry" />
        </mxCell>
        <mxCell id="7baba1c4bc27f4b0-44" value="DB" style="shape=note;whiteSpace=wrap;html=1;size=14;verticalAlign=top;align=left;spacingTop=-6;rounded=0;shadow=0;comic=0;labelBackgroundColor=none;strokeWidth=1;fontFamily=Verdana;fontSize=12" parent="1" vertex="1">
          <mxGeometry x="680" y="30" width="100" height="35" as="geometry" />
        </mxCell>
        <mxCell id="k1pHN3gSKMdNhCrVo-mf-1" value="" style="endArrow=classic;html=1;" edge="1" parent="1" target="7baba1c4bc27f4b0-3">
          <mxGeometry relative="1" as="geometry">
            <mxPoint x="150" y="170" as="sourcePoint" />
            <mxPoint x="250" y="170" as="targetPoint" />
          </mxGeometry>
        </mxCell>
        <mxCell id="k1pHN3gSKMdNhCrVo-mf-2" value="业务短信, http请求" style="edgeLabel;resizable=0;html=1;align=center;verticalAlign=middle;" connectable="0" vertex="1" parent="k1pHN3gSKMdNhCrVo-mf-1">
          <mxGeometry relative="1" as="geometry" />
        </mxCell>
        <mxCell id="k1pHN3gSKMdNhCrVo-mf-11" value="&#xa;&#xa;&lt;span style=&quot;color: rgb(0, 0, 0); font-family: helvetica; font-size: 12px; font-style: normal; font-weight: 400; letter-spacing: normal; text-align: center; text-indent: 0px; text-transform: none; word-spacing: 0px; background-color: rgb(248, 249, 250); display: inline; float: none;&quot;&gt;放入到MQ中&lt;/span&gt;&#xa;&#xa;" style="html=1;verticalAlign=bottom;endArrow=block;entryX=0;entryY=0;labelBackgroundColor=none;fontFamily=Verdana;fontSize=12;edgeStyle=elbowEdgeStyle;elbow=vertical;" edge="1" parent="1">
          <mxGeometry relative="1" as="geometry">
            <mxPoint x="449.5" y="199" as="sourcePoint" />
            <mxPoint x="295" y="199" as="targetPoint" />
          </mxGeometry>
        </mxCell>
        <mxCell id="k1pHN3gSKMdNhCrVo-mf-12" value="&lt;span style=&quot;font-size: 12px ; background-color: rgb(248 , 249 , 250)&quot;&gt;放入到MQ中&lt;/span&gt;" style="edgeLabel;html=1;align=center;verticalAlign=middle;resizable=0;points=[];" vertex="1" connectable="0" parent="k1pHN3gSKMdNhCrVo-mf-11">
          <mxGeometry x="0.1385" y="2" relative="1" as="geometry">
            <mxPoint x="-1.5" y="-3" as="offset" />
          </mxGeometry>
        </mxCell>
        <mxCell id="k1pHN3gSKMdNhCrVo-mf-15" value="放入回调MQ" style="html=1;verticalAlign=bottom;endArrow=open;dashed=1;endSize=8;labelBackgroundColor=none;fontFamily=Verdana;fontSize=12;edgeStyle=elbowEdgeStyle;elbow=vertical;exitX=0.2;exitY=0.896;exitDx=0;exitDy=0;exitPerimeter=0;" edge="1" parent="1" source="k1pHN3gSKMdNhCrVo-mf-20">
          <mxGeometry relative="1" as="geometry">
            <mxPoint x="290" y="582" as="targetPoint" />
            <Array as="points">
              <mxPoint x="420" y="582" />
              <mxPoint x="300" y="590" />
              <mxPoint x="350" y="560" />
            </Array>
            <mxPoint x="445" y="720" as="sourcePoint" />
          </mxGeometry>
        </mxCell>
        <mxCell id="k1pHN3gSKMdNhCrVo-mf-16" value="" style="endArrow=none;dashed=1;html=1;dashPattern=1 3;strokeWidth=2;" edge="1" parent="1">
          <mxGeometry width="50" height="50" relative="1" as="geometry">
            <mxPoint y="290" as="sourcePoint" />
            <mxPoint x="880" y="290" as="targetPoint" />
          </mxGeometry>
        </mxCell>
        <mxCell id="k1pHN3gSKMdNhCrVo-mf-17" value="" style="endArrow=classic;startArrow=classic;html=1;" edge="1" parent="1">
          <mxGeometry width="50" height="50" relative="1" as="geometry">
            <mxPoint x="455" y="357" as="sourcePoint" />
            <mxPoint x="729.5" y="357" as="targetPoint" />
            <Array as="points">
              <mxPoint x="490" y="357" />
            </Array>
          </mxGeometry>
        </mxCell>
        <mxCell id="k1pHN3gSKMdNhCrVo-mf-18" value="&lt;span style=&quot;color: rgb(50 , 50 , 50) ; font-family: &amp;#34;verdana&amp;#34; ; font-size: 13px ; background-color: rgba(255 , 255 , 255 , 0.01)&quot;&gt;批量插入发送记录,&amp;nbsp;&lt;/span&gt;&lt;br style=&quot;color: rgb(50 , 50 , 50) ; font-family: &amp;#34;verdana&amp;#34; ; font-size: 13px&quot;&gt;&lt;span style=&quot;color: rgb(50 , 50 , 50) ; font-family: &amp;#34;verdana&amp;#34; ; font-size: 13px ; background-color: rgba(255 , 255 , 255 , 0.01)&quot;&gt;这里非短信的1000条记录一起insert&lt;/span&gt;&lt;br&gt;默认设置为成功" style="edgeLabel;html=1;align=center;verticalAlign=middle;resizable=0;points=[];" vertex="1" connectable="0" parent="k1pHN3gSKMdNhCrVo-mf-17">
          <mxGeometry x="0.1206" y="1" relative="1" as="geometry">
            <mxPoint x="-6" as="offset" />
          </mxGeometry>
        </mxCell>
        <mxCell id="k1pHN3gSKMdNhCrVo-mf-19" value="return" style="html=1;verticalAlign=bottom;endArrow=open;dashed=1;endSize=8;labelBackgroundColor=none;fontFamily=Verdana;fontSize=12;edgeStyle=elbowEdgeStyle;elbow=vertical;" edge="1" parent="1" target="7baba1c4bc27f4b0-13">
          <mxGeometry relative="1" as="geometry">
            <mxPoint x="460" y="500" as="targetPoint" />
            <Array as="points">
              <mxPoint x="480" y="480" />
              <mxPoint x="540" y="500" />
              <mxPoint x="710" y="941" />
            </Array>
            <mxPoint x="585" y="480" as="sourcePoint" />
            <mxPoint as="offset" />
          </mxGeometry>
        </mxCell>
        <mxCell id="k1pHN3gSKMdNhCrVo-mf-20" value="" style="html=1;points=[];perimeter=orthogonalPerimeter;" vertex="1" parent="1">
          <mxGeometry x="450" y="510" width="10" height="80" as="geometry" />
        </mxCell>
        <mxCell id="k1pHN3gSKMdNhCrVo-mf-21" value="是否有回调" style="endArrow=classic;html=1;edgeStyle=orthogonalEdgeStyle;curved=1;entryX=0.933;entryY=0.863;entryDx=0;entryDy=0;entryPerimeter=0;exitX=1;exitY=0.121;exitDx=0;exitDy=0;exitPerimeter=0;" edge="1" parent="1" source="k1pHN3gSKMdNhCrVo-mf-20" target="k1pHN3gSKMdNhCrVo-mf-20">
          <mxGeometry width="50" height="50" relative="1" as="geometry">
            <mxPoint x="465" y="519" as="sourcePoint" />
            <mxPoint x="520" y="540" as="targetPoint" />
            <Array as="points">
              <mxPoint x="500" y="520" />
              <mxPoint x="500" y="579" />
            </Array>
          </mxGeometry>
        </mxCell>
        <mxCell id="k1pHN3gSKMdNhCrVo-mf-23" value="http回调" style="html=1;verticalAlign=bottom;endArrow=block;entryX=0.9;entryY=0.752;entryDx=0;entryDy=0;entryPerimeter=0;" edge="1" parent="1" target="7baba1c4bc27f4b0-9">
          <mxGeometry width="80" relative="1" as="geometry">
            <mxPoint x="290" y="611" as="sourcePoint" />
            <mxPoint x="160" y="610" as="targetPoint" />
            <Array as="points" />
          </mxGeometry>
        </mxCell>
        <mxCell id="k1pHN3gSKMdNhCrVo-mf-24" value="业务层与MQ交互&lt;br&gt;&amp;nbsp;或者http与message交互" style="text;html=1;strokeColor=none;fillColor=none;align=left;verticalAlign=middle;whiteSpace=wrap;rounded=0;fontStyle=1;fontColor=#66B2FF;" vertex="1" parent="1">
          <mxGeometry y="190" width="150" height="60" as="geometry" />
        </mxCell>
        <mxCell id="k1pHN3gSKMdNhCrVo-mf-25" value="消费MQ信息&lt;br&gt;回调通知业务" style="text;html=1;strokeColor=none;fillColor=none;align=left;verticalAlign=middle;whiteSpace=wrap;rounded=0;fontStyle=1;fontColor=#66B2FF;" vertex="1" parent="1">
          <mxGeometry y="400" width="150" height="60" as="geometry" />
        </mxCell>
      </root>
    </mxGraphModel>
  </diagram>
</mxfile>
